<mxfile host="app.diagrams.net" modified="2024-05-06T02:03:54.906Z" agent="Mozilla/5.0 (X11; Ubuntu; Linux x86_64; rv:125.0) Gecko/20100101 Firefox/125.0" version="24.3.1" etag="EPrKii-nQ_AVbAjKqOWF" type="github">
  <diagram name="Page-1" id="H6FxpRw3yK23xjRBAx4m">
    <mxGraphModel>
      <root>
        <mxCell id="0" />
        <mxCell id="1" parent="0" />
      </root>
    </mxGraphModel>
  </diagram>
</mxfile>
